<svg width="16" height="16" viewBox="0 0 16 16" fill="none" xmlns="http://www.w3.org/2000/svg">
<path d="M7.31407 7.17073C7.67963 7.41445 8.32106 7.41448 8.68671 7.1707L8.6869 7.17059L14.9176 3.01675C14.7133 2.42568 14.1515 1.99988 13.4919 1.99988H2.5088C1.84913 1.99988 1.2874 2.42568 1.08301 3.01675L7.31388 7.17062L7.31407 7.17073Z" fill="black"/>
<path d="M9.14156 7.85291L9.14137 7.85305C8.82139 8.06636 8.41062 8.17303 8 8.17303C7.58929 8.17303 7.1787 8.06639 6.85869 7.85302L6.85855 7.85294L1 3.94727V10.9766C1 11.8084 1.67668 12.485 2.50846 12.485H13.4916C14.3233 12.485 15 11.8084 15 10.9766V3.94727L9.14156 7.85291Z" fill="black"/>
</svg>
