<svg width="1440" height="901" viewBox="0 0 1440 901" fill="none" xmlns="http://www.w3.org/2000/svg">
<path opacity="0.5" d="M1624.87 92.0249C1096.8 507.766 1144.17 116.881 1016.56 111.293C980.911 109.731 946.486 150.014 937.83 183.754C926.2 229.088 978.175 254.893 1016.53 214.03C1055.25 172.781 1021.03 114.432 978.427 114.706C957.287 114.843 934.425 127.007 915.864 142.68C847.252 200.632 834.354 290.89 796.696 362.879C769.158 415.53 732.723 467.024 684.814 506.276C631.326 550.103 565.476 573.872 507.623 565.765C367.121 546.091 243.229 377.552 64.7989 503.833C-92.8306 615.4 -97.9691 837.312 -89.0634 974.861M-91.5802 970.495C-95.5361 887.55 -93.5233 773.659 -56.4241 674.224C-40.5936 631.95 -18.7744 592.736 11.3191 558.822C27.9587 540.071 47.2248 522.876 69.4807 507.76C104.652 483.785 137.824 470.875 169.497 465.64C226.943 456.13 279.965 472.078 329.865 492.94C364.811 507.552 397.681 524.49 429.609 539.364C453.603 550.545 477.934 560.058 503.407 564.465C527.806 568.711 554.208 566.916 580.615 559.907C614.596 550.921 648.486 533.433 678.628 509.491C726.81 471.35 763.981 420.379 791.735 367.434C830.311 293.922 845.983 206.565 913.017 152.138C917.422 148.56 922.062 145.226 926.829 142.228C941.512 132.989 957.556 126.69 972.565 126.777C1012.69 126.947 1044.26 182.35 1008.03 220.077C1001.99 226.361 995.671 230.92 989.319 233.905C956.847 249.34 924.465 225.241 935.096 188.271C944.545 155.405 978.832 116.349 1014.54 117.963C1027.84 118.56 1039.29 123.245 1049.75 130.693C1139.34 194.615 1162.94 452.431 1617.06 83.8022M-94.1052 966.118C-96.6446 883.093 -92.3545 768.785 -53.2618 671.448C-36.5186 630.036 -14.1684 592.603 15.9902 560.332C32.6786 542.493 51.9676 526.151 74.1383 511.671C109.154 488.802 142.23 476.375 173.944 471.232C231.24 461.895 284.952 476.544 334.339 494.909C368.925 507.777 400.301 522.324 429.601 536.907C451.851 547.986 474.657 558.043 499.174 563.143C522.648 568.092 548.605 567.067 574.752 560.71C608.437 552.604 642.192 535.877 672.429 512.69C720.83 475.57 758.798 425.205 786.772 371.972C826.272 296.931 844.732 212.463 910.165 161.59C914.454 158.257 918.954 155.207 923.523 152.497C937.545 144.179 952.66 138.577 966.698 138.841C1004.35 139.462 1033.26 191.903 999.522 226.118C993.771 231.95 987.805 236.157 981.818 238.802C950.924 252.802 920.822 228.856 932.372 192.77C942.607 160.784 976.769 122.943 1012.55 124.609C1025.81 125.219 1037.32 129.801 1047.85 137.079C1138.15 199.507 1173.97 440.481 1609.26 75.5675M-96.6238 961.735C-97.7465 878.631 -91.1789 763.906 -50.0883 668.672C-32.428 628.127 -9.55561 592.463 20.677 561.846C37.4141 544.921 56.7128 529.415 78.8158 515.593C113.647 493.809 146.668 481.884 178.418 476.827C235.569 467.671 289.954 481.014 338.834 496.889C373.059 508.012 402.93 520.17 429.609 534.456C450.104 545.432 471.402 556.027 494.967 561.825C517.515 567.487 543.026 567.218 568.908 561.523C602.294 554.292 635.94 538.358 666.25 515.899C714.904 479.852 753.629 430.048 781.818 376.52C822.239 299.963 843.518 218.348 907.318 171.047C911.487 167.953 915.845 165.188 920.224 162.759C933.589 155.368 947.766 150.452 960.838 150.9C996.015 151.965 1022.26 201.434 991.026 232.159C985.553 237.544 979.951 241.394 974.322 243.704C944.999 256.275 917.169 232.489 929.644 197.281C940.666 166.174 974.704 129.549 1010.54 131.267C1023.77 131.895 1035.32 136.376 1045.95 143.482C1136.95 204.415 1184.98 428.554 1601.45 67.35M-99.1381 957.358C-98.8486 874.17 -90.2347 758.989 -46.9081 665.89C-28.4316 626.19 -4.93615 592.318 25.3704 563.355C42.1562 547.342 61.4648 532.673 83.4957 519.504C118.149 498.799 151.101 487.387 182.894 482.412C239.895 473.429 294.965 485.467 343.338 498.851C377.209 508.223 405.557 517.999 429.626 531.988C448.356 542.877 468.194 553.925 490.759 560.491C512.419 566.787 537.445 567.297 563.063 562.32C596.152 555.897 629.693 540.817 660.069 519.092C708.978 484.108 748.457 434.874 776.873 381.052C818.211 302.972 842.324 224.188 904.484 180.493C908.537 177.643 912.757 175.151 916.936 173.021C929.647 166.546 942.876 162.361 954.99 162.959C987.657 164.559 1011.29 210.93 982.538 238.193C977.344 243.12 972.103 246.625 966.839 248.595C939.091 259.742 913.527 236.121 926.931 201.78C938.729 171.57 972.641 136.143 1008.55 137.913C1021.76 138.554 1033.36 142.932 1044.07 149.868C1135.78 209.306 1196.02 416.598 1593.67 59.1147M-101.663 952.98C-99.9573 869.714 -89.1173 754.096 -43.7414 663.12C-24.3678 624.277 -0.336957 592.191 30.0529 564.865C46.8806 549.77 66.2014 535.926 88.1621 523.426C122.626 503.801 155.527 492.896 187.35 488.014C244.201 479.205 299.955 489.938 347.81 500.832C381.325 508.465 408.134 515.852 429.616 529.543C446.566 540.342 464.929 551.91 486.528 559.185C507.27 566.178 531.843 567.449 557.194 563.145C589.994 557.58 623.421 543.316 653.865 522.314C703.038 488.402 743.269 439.723 771.895 385.613C814.16 306.009 841.135 230.033 901.616 189.968C905.561 187.357 909.628 185.15 913.621 183.307C925.684 177.741 937.968 174.277 949.119 175.046C979.299 177.124 998.877 219.037 974.033 244.251C969.38 248.978 964.239 251.879 959.334 253.514C933.163 263.227 909.852 239.8 924.201 206.302C936.758 176.995 970.574 142.76 1006.54 144.583C1019.72 145.241 1031.36 149.517 1042.16 156.277C1134.57 214.22 1207.04 404.671 1585.85 50.9031M-104.182 948.598C-101.064 865.246 -87.9817 749.196 -40.5723 660.338C-20.3017 622.353 4.27569 592.051 34.7351 566.374C51.6115 552.191 70.9308 539.185 92.8308 527.337C127.113 508.786 159.948 498.401 191.815 493.599C248.516 484.965 304.956 494.392 352.296 502.8C385.451 508.689 410.702 513.695 429.615 527.081C444.771 537.801 461.679 549.872 482.301 557.857C502.132 565.54 526.246 567.578 551.338 563.943C583.84 559.241 617.163 545.775 647.679 525.501C697.112 492.658 738.093 444.544 766.945 390.139C810.128 309.013 840.015 235.818 898.773 199.403C902.605 197.025 906.532 195.103 910.324 193.559C921.752 188.902 933.074 186.152 943.261 187.094C970.951 189.645 987.603 228.061 965.536 250.276C961.224 254.619 956.382 257.099 951.843 258.394C927.243 266.678 906.174 243.445 921.484 210.796C934.792 182.398 968.511 149.355 1004.54 151.229C1017.7 151.9 1029.37 156.08 1040.26 162.663C1133.38 219.111 1218.06 392.728 1578.06 42.6626M-106.707 944.221C-102.172 860.79 -86.8532 744.303 -37.3989 657.562C-16.2312 620.434 8.88858 591.912 39.4219 567.889C56.347 554.618 75.6716 542.444 97.5038 531.253C131.597 513.783 164.37 503.905 196.277 499.195C252.833 490.74 309.957 498.863 356.786 504.774C389.58 508.918 413.24 511.545 429.623 524.63C442.955 535.278 458.438 547.844 478.088 556.545C497.008 564.919 520.662 567.723 545.487 564.762C577.699 560.918 610.915 548.261 641.493 528.716C691.194 496.951 732.924 449.386 761.984 394.693C806.084 312.045 838.922 241.609 895.93 208.866C899.654 206.727 903.441 205.077 907.023 203.833C917.828 200.073 928.175 198.051 937.399 199.164C962.592 202.194 976.347 236.979 957.038 256.328C953.076 260.298 948.525 262.347 944.344 263.307C921.315 270.162 902.486 247.135 918.761 215.312C932.818 187.835 966.45 155.966 1002.55 157.892C1015.67 158.582 1027.4 162.653 1038.37 169.066C1132.19 224.019 1229.09 380.794 1570.27 34.4445M-109.222 939.843C-103.277 856.34 -85.6997 739.397 -34.2255 654.786C-12.1539 618.509 13.5014 591.772 44.1043 569.398C61.0781 557.04 80.4011 545.703 102.177 535.17C136.076 518.774 168.803 509.408 200.747 504.786C257.152 496.505 314.955 503.328 361.276 506.748C393.714 509.153 415.759 509.385 429.626 522.174C441.106 532.757 455.186 545.817 473.866 555.223C491.872 564.298 515.08 567.858 539.628 565.57C571.547 562.596 604.656 550.748 635.298 531.921C685.27 501.223 727.738 454.224 757.021 399.231C802.049 315.06 837.888 247.357 893.078 218.318C896.7 216.411 900.347 215.047 903.723 214.095C913.924 211.227 923.276 209.949 931.539 211.223C954.235 214.731 967.482 248.561 948.538 262.363C944.43 265.36 940.666 267.579 936.85 268.198C915.392 273.624 898.778 250.815 916.036 219.811C930.82 193.256 964.383 162.555 1000.54 164.539C1013.64 165.241 1025.4 169.217 1036.46 175.452C1131 228.916 1240.11 368.845 1562.46 26.2105M-111.747 935.466C-104.39 851.878 -84.5595 734.502 -31.0518 652.01C-8.07623 616.584 18.1073 591.639 48.798 570.907C65.8136 559.467 85.1445 548.95 106.857 539.08C140.563 523.759 173.236 514.912 205.217 510.376C261.472 502.269 319.959 507.787 365.773 508.716C397.851 509.377 418.226 507.206 429.637 519.711C439.229 530.231 451.948 543.778 469.655 553.9C486.751 563.665 509.499 567.992 533.781 566.378C565.402 564.267 598.411 553.224 629.115 535.125C679.359 505.511 722.571 459.055 752.067 403.78C798.012 318.086 836.927 253.107 890.231 227.775C893.758 226.095 897.252 225.016 900.422 224.369C910.03 222.391 918.378 221.847 925.682 223.298C945.877 227.297 956.698 257.765 940.041 268.415C936.196 270.877 932.809 272.827 929.352 273.111C909.471 277.103 895.054 254.518 913.313 224.327C928.811 198.705 962.315 169.172 998.548 171.202C1011.61 171.922 1023.42 175.796 1034.58 181.86C1129.81 233.829 1251.14 356.911 1554.67 17.9923M-114.265 931.083C-105.492 847.416 -83.3989 729.59 -27.8827 649.228C-3.9988 614.66 22.7202 591.5 53.4803 572.416C70.5447 561.889 89.8697 552.204 111.53 542.996C145.038 528.744 177.663 520.421 209.686 515.966C265.791 508.034 324.964 512.246 370.264 510.69C401.981 509.606 420.645 504.995 429.645 517.26C437.303 527.703 448.704 541.761 465.437 552.582C481.619 563.049 503.908 568.143 527.933 567.185C559.268 565.938 592.171 555.704 622.932 538.328C673.451 509.787 717.401 463.898 747.116 408.317C793.978 321.101 836.04 258.847 887.39 237.227C890.827 235.779 894.18 234.984 897.13 234.626C906.167 233.536 913.475 233.74 919.829 235.351C937.513 239.84 946.648 269.564 931.548 274.445C928.275 276.915 924.962 278.058 921.858 278.002C903.548 280.565 891.32 258.21 910.593 228.832C926.785 204.15 960.257 175.771 996.545 177.855C1009.58 178.593 1021.44 182.353 1032.68 188.252C1128.62 238.726 1262.16 344.973 1546.87 9.75764M-116.79 926.706C-106.6 842.96 -82.2406 724.689 -24.7157 646.458C0.0764289 612.746 27.3263 591.366 58.156 573.931C75.2691 564.317 94.595 555.457 116.185 546.919C149.496 533.736 182.077 525.931 214.131 521.569C270.083 513.822 329.943 516.718 374.736 512.671C406.097 509.847 422.985 502.734 429.63 514.81C435.317 525.144 445.434 539.741 461.202 551.271C476.47 562.44 498.306 568.294 522.06 568.006C553.103 567.627 585.909 558.202 616.73 541.539C667.527 514.086 712.216 468.736 742.144 412.872C789.934 324.133 835.202 264.618 884.524 246.691C887.878 245.469 891.083 244.964 893.811 244.906C902.298 244.716 908.551 245.65 913.949 247.428C929.104 252.414 935.772 279.255 923.032 280.503C920.065 282.548 917.087 283.312 914.348 282.916C897.609 284.05 887.549 261.926 907.852 233.355C924.724 209.607 958.173 182.383 994.533 184.524C1007.54 185.275 1019.44 188.938 1030.77 194.661C1127.41 243.64 1273.18 333.046 1539.06 1.54588M-119.305 922.328C-107.703 838.498 -81.0718 719.788 -21.5359 643.676C4.1715 610.815 31.9456 591.221 62.8492 575.441C80.0111 566.738 99.331 558.711 120.869 550.835C153.982 538.722 186.51 531.435 218.611 527.159C274.414 519.586 334.963 521.182 379.237 514.645C410.238 510.076 425.305 500.362 429.649 512.358C433.323 522.52 442.201 537.724 456.995 549.954C471.35 561.824 492.733 568.44 516.216 568.819C546.97 569.315 579.677 560.694 610.55 544.748C661.631 518.379 707.046 473.578 737.196 417.415C785.903 327.153 834.483 270.406 881.688 256.148C884.962 255.157 888.024 254.949 890.52 255.18C898.481 255.904 903.645 257.555 908.102 259.503C920.714 264.998 924.919 288.944 914.545 286.555C911.885 288.173 909.241 288.56 906.856 287.824C891.694 287.523 883.776 265.643 905.136 237.865C922.675 215.053 956.112 188.995 992.538 191.187C1005.51 191.956 1017.45 195.518 1028.87 201.064C1126.22 248.548 1284.21 321.113 1531.26 -6.67208M-121.83 917.951C-108.811 834.042 -79.9023 714.887 -18.3691 640.906C8.2535 608.895 36.5346 591.038 67.5361 576.955C84.736 569.138 104.063 561.959 125.543 554.751C158.453 543.702 190.943 536.938 223.081 532.749C278.733 525.35 339.961 525.647 383.73 516.607C414.37 510.294 430.407 496.959 429.655 509.89C433.566 518.631 438.956 535.691 452.787 548.619C466.228 561.191 487.158 568.568 510.371 569.615C540.832 570.98 573.444 563.168 604.37 547.941C655.735 522.655 701.875 478.404 732.245 421.952C781.873 330.173 833.835 276.25 878.847 265.599C882.054 264.84 884.965 264.933 887.232 265.442C894.674 267.102 898.735 269.453 902.254 271.561C912.296 277.561 914.075 298.617 906.057 292.589C903.696 293.787 901.393 293.79 899.374 292.714C885.787 290.99 879.991 269.344 902.423 242.364C920.607 220.489 954.061 195.588 990.542 197.833C1003.49 198.615 1015.48 202.074 1026.98 207.45C1125.04 253.44 1295.23 309.169 1523.46 -14.9068M-124.348 913.568C-109.913 829.58 -78.7216 709.985 -15.2 638.124C12.3422 606.97 41.15 590.888 72.2142 578.459C89.4628 571.554 108.78 565.202 130.207 558.657C162.915 548.672 195.361 542.437 227.535 538.335C283.037 531.11 344.949 530.101 388.205 518.577C418.489 510.524 433.115 494.673 429.643 507.429C431.875 515.974 435.686 533.67 448.549 547.292C461.077 560.566 481.552 568.714 504.503 570.413C534.669 572.658 567.18 565.65 598.166 551.135C649.812 526.943 696.687 483.226 727.273 426.479C777.825 333.172 833.241 282.175 875.989 275.03C879.132 274.506 881.879 274.913 883.916 275.683C890.842 278.313 893.776 281.321 896.376 283.598C903.806 290.094 903.191 308.269 897.54 298.603C895.485 299.375 893.523 298.995 891.856 297.59C879.84 294.437 876.162 273.019 899.685 246.847C918.503 225.91 951.978 202.173 988.533 204.464C1001.44 205.258 1013.48 208.621 1025.07 213.82C1123.83 258.315 1306.25 297.197 1515.66 -23.1633M-126.874 909.191C-111.026 825.119 -77.5365 705.089 -12.0264 635.348C16.4354 605.05 45.7672 590.754 76.9009 579.974C94.1983 573.981 113.512 568.45 134.885 562.579C167.386 553.652 199.791 547.952 232.009 543.931C287.365 536.885 349.958 534.566 392.699 520.556C422.623 510.759 435.843 492.397 429.648 504.989C430.201 513.338 432.445 531.67 444.334 545.991C455.945 559.978 475.97 568.876 498.65 571.243C528.524 574.358 560.944 568.163 591.978 554.361C643.91 531.269 691.508 488.085 722.314 431.051C773.783 336.221 832.71 288.247 873.141 284.515C876.22 284.228 878.803 284.948 880.621 285.979C887.012 289.612 888.825 293.228 890.521 295.69C895.314 302.639 892.34 317.975 889.044 304.672C887.295 305.018 885.668 304.259 884.366 302.514C873.92 297.932 872.333 276.738 896.964 251.38C916.403 231.364 949.915 208.795 986.529 211.144C999.416 211.951 1011.49 215.217 1023.18 220.245C1122.64 263.245 1317.27 285.286 1507.86 -31.359M-129.388 904.814C-112.131 820.668 -76.3358 700.197 -8.85288 632.572C20.5285 603.13 50.38 590.614 81.5877 581.489C98.9381 576.414 118.244 571.698 139.558 566.495C171.859 558.621 204.224 553.455 236.471 549.527C291.678 542.655 354.96 539.036 397.189 522.53C426.753 510.989 438.563 490.11 429.652 502.532C428.525 510.686 429.19 529.654 440.111 544.669C450.803 559.363 470.374 569.022 492.791 572.052C522.369 576.046 554.7 570.655 585.79 557.56C638.008 535.567 686.337 492.911 717.351 435.588C769.742 339.242 832.202 294.417 870.285 293.962C873.303 293.927 875.71 294.961 877.31 296.242C883.137 300.914 883.86 305.074 884.654 307.755C886.81 315.057 881.474 327.649 880.542 310.719C879.099 310.638 877.807 309.502 876.863 307.422C867.995 301.405 868.483 280.431 894.23 255.897C914.274 236.798 947.842 215.406 984.523 217.807C997.378 218.633 1009.5 221.791 1021.27 226.648C1121.44 268.153 1328.29 273.353 1500.06 -39.5766M-131.914 900.437C-113.24 816.212 -75.1466 695.306 -5.6864 629.801C24.619 601.221 54.9903 590.486 86.27 582.998C103.669 578.836 122.967 574.935 144.224 570.418C176.321 563.591 208.639 558.966 240.934 555.123C295.991 548.426 359.958 543.502 401.673 524.51C430.876 511.224 441.28 487.834 429.648 500.082C426.843 508.04 425.922 527.65 435.887 543.357C445.658 558.759 464.781 569.184 486.93 572.871C516.219 577.74 548.452 573.169 579.592 560.775C632.101 539.888 681.149 497.76 712.386 440.138C765.7 342.262 831.693 300.742 867.431 303.425C870.398 303.643 872.612 304.997 873.998 306.517C879.226 312.256 878.927 316.874 878.781 319.826C878.406 327.353 870.593 337.334 872.035 316.76C870.899 316.253 869.941 314.739 869.362 312.319C862.065 304.873 864.622 284.097 891.505 260.396C912.146 242.204 945.773 222.007 982.52 224.46C995.35 225.297 1007.51 228.359 1019.37 233.04C1120.25 273.051 1339.31 261.415 1492.25 -47.8053M-134.432 896.054C-114.346 811.745 -73.9484 690.425 -2.51047 627.014C28.7258 599.289 59.6099 590.341 90.9591 584.502C108.407 581.252 127.697 578.167 148.9 574.323C180.793 568.544 213.075 564.458 245.399 560.708C300.306 554.185 364.951 547.961 406.165 526.473C435.019 511.442 444.006 485.542 429.659 497.619C425.174 505.382 422.674 525.628 431.672 542.029C440.52 558.149 459.197 569.33 481.084 573.668C510.078 579.417 542.22 575.66 573.411 563.968C626.21 544.186 675.988 502.586 707.434 444.675C761.665 345.277 831.158 307.208 864.59 312.877C867.491 313.369 869.523 315.016 870.71 316.779C875.309 323.594 874.076 328.659 872.932 331.884C870.19 339.606 859.749 347.007 863.546 322.795C862.705 321.863 862.093 319.97 861.873 317.215C856.146 308.341 860.759 287.746 888.789 264.906C910.018 247.609 943.714 228.607 980.528 231.112C993.326 231.967 1005.54 234.927 1017.48 239.432C1119.06 277.947 1350.35 249.471 1484.46 -56.0457M-136.95 891.671C-115.448 807.283 -72.7431 685.538 0.663257 624.238C32.8279 597.38 64.223 590.202 95.6462 586.016C113.143 583.678 132.42 581.404 153.577 578.244C185.262 573.507 217.505 569.972 249.873 566.304C304.63 559.955 369.96 552.426 410.66 528.452C439.153 511.677 446.735 483.265 429.667 495.168C423.503 502.735 419.417 523.623 427.459 540.717C435.379 557.551 453.611 569.486 475.234 574.487C503.926 581.122 535.984 578.174 567.225 567.183C620.312 548.517 670.812 507.434 702.48 449.223C757.633 348.309 830.546 313.821 861.742 322.334C864.581 323.107 866.413 325.053 867.408 327.053C871.339 334.95 869.255 340.481 867.07 343.954C862.038 351.95 848.881 356.691 855.045 328.842C854.509 327.483 854.232 325.213 854.377 322.117C850.228 311.808 856.883 291.379 886.069 269.411C907.876 252.999 941.649 235.212 978.53 237.769C991.303 238.637 1003.56 241.495 1015.58 245.829C1117.87 282.855 1361.37 237.527 1476.66 -64.2693M-139.471 887.299C-116.552 802.832 -71.5431 680.674 3.83663 621.462C36.9297 595.47 68.832 590.129 100.328 587.526C117.864 586.145 137.15 584.635 158.246 582.155C189.733 578.46 221.927 575.477 254.331 571.895C308.942 565.725 374.953 556.886 415.146 530.421C443.279 511.901 444.727 475.091 429.67 492.711C422.725 500.84 416.148 521.619 423.236 539.394C430.23 556.942 448.02 569.638 469.375 575.295C497.776 582.816 529.738 580.677 561.03 570.388C614.405 552.838 665.626 512.272 697.515 453.773C753.591 351.329 829.818 320.551 858.895 331.791C861.658 332.857 863.295 335.079 864.114 337.321C867.355 346.291 864.443 352.341 861.219 356.024C853.886 364.394 838.034 366.375 846.558 334.893C846.329 333.108 846.386 330.46 846.889 327.03C844.311 315.292 853.013 295.007 883.35 273.933C905.741 258.383 939.592 241.829 976.54 244.438C989.281 245.324 1001.58 248.08 1013.7 252.237C1116.69 287.768 1372.4 225.604 1468.87 -72.4821M-141.99 882.916C-117.658 798.365 -70.3292 675.798 7.01017 618.685C41.0316 593.561 73.4448 589.99 105.022 589.034C122.606 588.566 141.887 587.861 162.93 586.071C194.216 583.412 226.371 580.98 258.812 577.484C313.266 571.495 379.973 561.349 419.648 532.394C447.424 512.135 451.378 476.62 429.685 490.254C419.672 496.551 412.898 519.609 419.03 538.077C425.096 556.337 442.444 569.794 463.538 576.102C491.644 584.504 523.519 583.184 554.858 573.591C608.518 557.169 660.471 517.103 692.575 458.309C749.568 354.344 829.009 327.352 856.061 341.237C858.739 342.612 860.197 345.087 860.822 347.578C863.354 357.61 859.367 363.983 855.366 368.077C846.228 377.422 831.975 375.888 838.065 340.923C838.454 338.662 838.534 335.686 839.396 331.921C838.388 318.754 849.131 298.59 880.626 278.432C903.599 263.728 937.525 248.418 974.532 251.085C987.248 251.983 999.592 254.637 1011.79 258.623C1115.49 292.66 1383.42 213.655 1461.06 -80.7161M-144.515 878.539C-118.767 793.909 -69.1316 670.946 10.1724 615.91C45.1266 591.658 78.0395 589.857 109.697 590.55C127.33 590.994 146.606 591.093 167.592 589.988C198.679 588.354 230.782 586.484 263.27 583.076C317.574 577.26 384.966 565.809 424.129 534.358C451.545 512.354 454.375 474.569 429.679 487.787C418.158 493.951 409.616 517.588 414.799 536.743C419.931 555.723 436.838 569.94 457.671 576.9C485.474 586.188 517.262 585.687 548.661 576.779C602.611 561.489 655.283 521.924 687.607 462.842C745.522 357.359 828.045 334.195 853.205 350.684C855.779 352.375 857.07 355.102 857.511 357.841C859.326 368.925 854.741 376.111 849.495 380.136C837.414 389.407 820.099 385.791 829.554 346.959C830.204 344.302 830.664 340.918 831.891 336.812C832.458 322.222 845.243 302.152 877.897 282.926C901.447 269.063 935.451 255.013 972.524 257.731C985.209 258.649 997.598 261.2 1009.89 265.015C1114.29 297.557 1394.44 201.711 1453.26 -88.945M-147.034 874.156C-119.869 789.447 -67.9203 666.081 13.3526 613.128C49.2327 589.754 82.659 589.712 114.387 592.053C132.068 593.41 151.346 594.307 172.261 593.899C203.153 593.295 235.203 591.989 267.729 588.667C321.882 583.025 389.952 570.275 428.608 536.333C455.663 512.584 457.28 472.549 429.676 485.337C416.588 491.399 406.348 515.584 410.581 535.426C414.782 555.114 431.244 570.103 451.816 577.714C479.317 587.888 511.018 588.207 542.471 579.989C596.706 565.827 650.109 526.761 682.649 467.385C741.487 360.374 826.979 341.07 850.357 360.141C852.817 362.149 853.943 365.118 854.216 368.109C855.311 380.229 849.887 388.007 843.644 392.206C829.144 401.952 808.466 395.577 821.063 353.005C821.964 349.942 822.813 346.16 824.395 341.715C826.54 325.69 841.369 305.702 875.174 287.442C899.318 274.397 933.39 261.624 970.526 264.389C983.185 265.319 995.612 267.774 1007.99 271.413C1113.1 302.459 1405.46 189.778 1445.47 -97.1742M-149.555 869.784C-120.985 784.997 -66.7208 661.245 16.5193 610.358C53.3253 587.861 87.2693 589.584 119.066 593.574C136.79 595.849 156.076 597.538 176.931 597.827C207.631 598.242 239.634 597.503 272.196 594.268C326.204 588.807 394.954 574.746 433.096 538.318C459.795 512.83 460.132 470.522 429.677 482.891C414.994 488.859 403.072 513.586 406.357 534.115C409.623 554.523 425.644 570.271 445.954 578.533C473.157 589.599 504.768 590.732 536.274 583.205C590.792 570.181 644.921 531.61 677.681 471.946C737.441 363.418 825.784 347.947 847.496 369.611C849.829 371.935 850.809 375.139 850.897 378.389C851.263 391.534 844.99 399.921 837.764 404.283C820.828 414.509 796.957 405.312 812.547 359.063C813.718 355.587 814.938 351.415 816.885 346.629C820.6 329.175 837.483 309.253 872.44 291.959C897.173 279.726 931.318 268.235 968.513 271.059C981.14 272.007 993.619 274.354 1006.08 277.822C1111.9 307.374 1416.47 177.846 1437.65 -105.386M-152.073 865.402C-122.087 780.535 -65.5187 656.397 19.6927 607.582C57.4247 585.963 91.8821 589.444 123.76 595.083C141.532 598.27 160.82 600.758 181.612 601.737C212.119 603.172 244.067 603.007 276.665 599.859C330.523 594.571 399.958 579.205 437.593 540.286C463.932 513.053 462.95 468.468 429.692 480.434C413.382 486.298 399.811 511.576 402.15 532.797C404.478 553.919 420.057 570.428 440.113 579.335C467.007 591.293 498.542 593.245 530.097 586.403C584.903 574.523 639.761 536.436 672.736 476.477C733.413 366.426 824.53 354.766 844.662 379.056C846.856 381.709 847.702 385.137 847.616 388.645C847.26 402.809 840.128 411.807 831.923 416.335C812.534 427.038 785.606 414.983 804.065 365.092C805.509 361.191 807.102 356.645 809.402 351.519C814.689 332.636 833.637 312.751 869.726 296.458C895.07 285.019 929.255 274.83 966.528 277.704C979.123 278.671 991.647 280.916 1004.2 284.207C1110.72 312.264 1427.52 165.895 1429.87 -113.621M-154.599 861.024C-123.2 776.074 -64.319 651.561 22.862 604.8C61.5243 584.065 96.4838 589.305 128.438 596.587C146.259 600.687 165.543 603.967 186.28 605.648C216.6 608.107 248.496 608.505 281.13 605.444C334.838 600.33 404.963 583.664 442.079 542.255C468.057 513.278 465.721 466.4 429.691 477.972C411.743 483.732 396.53 509.556 397.924 531.469C399.313 553.305 414.455 570.579 434.25 580.138C460.841 592.982 492.283 595.76 523.902 589.607C578.984 578.872 634.576 541.273 667.771 481.026C729.372 369.447 823.182 361.556 841.81 388.508C843.862 391.474 844.577 395.141 844.31 398.914C843.235 414.085 835.24 423.704 826.056 428.4C804.208 439.585 774.314 424.639 795.559 371.134C797.275 366.808 799.236 361.883 801.902 356.416C808.766 336.098 829.788 316.233 867.002 300.958C892.95 290.308 927.193 281.424 964.521 284.352C977.091 285.33 989.653 287.479 1002.3 290.594C1109.52 317.156 1438.54 153.946 1422.06 -121.855M-157.113 856.647C-124.297 771.617 -63.1153 646.73 26.0397 602.029C65.6323 582.177 101.105 589.177 133.129 598.107C150.999 603.119 170.291 607.192 190.958 609.57C221.091 613.042 252.922 614.015 285.597 611.045C339.155 606.106 409.964 588.134 446.573 544.234C472.196 513.518 468.484 464.322 429.699 475.521C410.094 481.184 393.261 507.552 393.711 530.157C394.157 552.702 408.866 570.747 428.399 580.957C454.686 594.699 486.041 598.296 517.723 592.817C573.078 583.237 629.417 546.116 662.824 485.569C725.346 372.473 821.793 368.282 838.974 397.965C840.878 401.249 841.468 405.15 841.02 409.187C839.228 425.355 830.364 435.601 820.21 440.475C795.894 452.132 763.098 434.303 787.072 377.185C789.065 372.441 791.39 367.13 794.414 361.329C802.849 339.582 825.96 319.726 864.287 305.484C890.862 295.606 925.133 288.052 962.535 291.025C975.073 292.022 987.687 294.063 1000.41 297.007C1108.34 322.075 1449.57 142.029 1414.28 -130.074M-159.638 852.27C-125.406 767.161 -61.925 641.911 29.2089 599.248C69.7249 580.285 105.714 589.032 137.812 599.616C155.723 605.547 175.031 610.407 195.631 613.486C225.586 617.966 257.348 619.524 290.067 616.636C343.479 611.876 414.962 592.599 451.064 546.208C476.326 513.747 471.222 462.228 429.7 473.076C408.43 478.631 389.981 505.548 389.486 528.846C388.994 552.104 403.229 570.956 422.538 581.777C448.476 596.462 479.788 600.833 511.526 596.032C567.154 587.609 624.229 550.965 657.852 490.124C721.291 375.505 820.339 374.972 836.113 407.435C837.859 411.026 838.337 415.16 837.707 419.462C835.205 436.62 825.458 447.505 814.336 452.546C787.557 464.68 751.911 443.944 778.559 383.232C780.831 378.057 783.517 372.373 786.907 366.231C796.912 343.056 822.126 323.196 861.549 309.996C888.75 300.889 923.053 294.653 960.514 297.684C973.023 298.688 985.679 300.638 998.498 303.411C1107.13 326.984 1460.58 130.097 1406.46 -138.291M-162.157 847.887C-126.512 762.694 -60.7102 637.207 32.3824 596.472C73.832 578.453 110.326 588.893 142.501 601.12C160.461 607.963 179.784 613.609 200.3 617.397C230.081 622.89 261.777 625.022 294.525 622.227C347.787 617.641 419.955 597.059 455.549 548.177C480.451 513.971 473.949 460.107 429.699 470.614C406.753 476.062 386.663 503.541 385.264 527.523C383.795 551.492 397.634 571.102 416.686 582.579C442.324 598.14 473.537 603.358 505.338 599.231C561.244 591.968 619.051 555.796 652.9 494.662C717.263 378.514 818.886 381.579 833.268 416.881C834.857 420.78 835.219 425.158 834.408 429.725C831.196 447.873 820.58 459.413 808.476 464.604C779.237 477.249 740.77 453.571 770.064 389.273C772.615 383.668 775.663 377.61 779.411 371.133C790.994 346.524 818.312 326.648 858.829 314.5C886.67 306.154 920.994 301.252 958.515 304.342C970.992 305.364 983.689 307.206 996.602 309.808C1105.94 331.886 1471.6 118.153 1398.66 -146.514M-164.682 843.51C-127.621 758.238 -59.5412 632.333 35.5448 593.696C77.9071 576.539 114.921 588.76 147.177 602.635C165.186 610.39 184.536 616.795 204.962 621.314C234.583 627.779 266.192 630.532 298.984 627.817C352.096 623.406 424.953 601.524 460.024 550.146C484.565 514.196 476.65 457.982 429.687 468.152C405.067 473.482 383.389 501.515 381.026 526.196C378.637 550.872 392.023 571.243 410.811 583.383C436.15 599.818 467.257 605.918 499.128 602.43C555.293 596.391 613.857 560.623 647.915 499.201C713.199 381.536 817.383 388.139 830.394 426.334C831.821 430.535 832.075 435.152 831.087 439.988C827.165 459.127 815.663 471.29 802.594 476.664C770.877 489.753 729.635 463.203 761.548 395.304C764.384 389.273 767.788 382.837 771.902 376.02C785.06 349.986 814.503 330.079 856.089 318.995C884.583 311.396 918.909 307.848 956.503 310.983C968.955 312.018 981.697 313.758 994.692 316.189C1104.74 336.778 1482.61 106.204 1390.85 -154.754M-167.196 839.132C-128.719 753.781 -58.3614 627.459 38.7294 590.919C82.0088 574.63 119.55 588.625 151.874 604.149C196.014 625.343 247.914 637.857 303.469 633.413C356.424 629.181 429.973 605.988 464.537 552.119C488.722 514.43 479.391 455.85 429.717 465.7C403.412 470.912 380.157 499.498 376.835 524.883C373.514 550.268 386.466 571.393 404.983 584.201C474.301 632.119 589.309 600.378 642.983 503.748C716.423 371.538 839.729 398.409 827.808 450.261C810.905 523.797 690.23 499.641 764.418 380.938C792.531 328.512 882.061 303.509 992.809 322.603C1103.56 341.696 1493.65 94.2813 1383.07 -162.967M-167.824 834.418C-130.593 751.827 -60.0991 632.284 37.2239 597.917C79.9829 582.82 117.191 596.455 149.425 611.784C193.415 632.698 244.997 645.083 300.162 640.864C352.904 636.843 425.602 614.244 460.578 561.612C485.088 524.771 477.153 467.538 430.156 476.301C419.493 478.285 409.374 484.41 401.085 492.663C390.023 503.65 382.222 518.382 380.727 532.078C378.028 556.138 391.173 575.962 409.621 587.875C478.599 632.395 592.293 600.545 646.653 505.853C720.29 377.581 841.6 402.919 831.929 453.197C818.253 524.32 702.399 500.573 776.039 384.921C805.324 333.316 893.357 309.433 1003.04 324.745C1114.9 340.354 1496.56 92.6222 1386.26 -160.77M-168.448 829.71C-132.461 749.866 -61.8684 637.1 35.7269 604.926C77.9456 591.01 114.838 604.306 146.996 619.429C190.836 640.062 242.105 652.325 296.879 648.315C349.395 644.505 421.256 622.487 456.644 571.092C481.472 535.105 474.933 479.22 430.617 486.901C420.575 488.625 411.057 494.353 403.308 502.107C392.941 512.442 385.772 526.36 384.633 539.278C382.624 562.011 395.886 580.525 414.281 591.548C482.904 632.665 595.272 600.734 650.338 507.963C724.123 383.654 843.488 407.379 836.065 456.138C825.613 524.787 714.578 501.506 787.679 388.914C818.133 338.125 904.783 315.273 1013.29 326.886C1126.4 338.993 1499.49 90.968 1389.49 -158.575M-169.083 825.002C-134.336 747.912 -63.6915 641.908 34.2144 611.93C75.8864 599.173 112.47 612.153 144.544 627.075C188.242 647.421 239.191 659.568 293.572 655.767C345.868 652.174 416.886 630.743 452.687 580.574C477.84 545.435 472.697 490.897 431.062 497.497C421.645 498.966 412.73 504.286 405.519 511.552C395.853 521.241 389.286 534.351 388.524 546.473C387.171 567.88 400.578 585.089 418.918 595.222C487.175 632.937 598.206 600.953 654.007 510.069C727.9 389.729 845.365 411.768 840.184 459.085C832.948 525.194 726.736 502.455 799.297 392.908C830.93 342.934 916.3 321.008 1023.51 329.04C1137.99 337.615 1502.39 89.3148 1392.68 -156.374M-169.711 820.288C-136.204 745.952 -65.5408 646.684 32.7134 618.933C73.8255 607.32 110.121 619.993 142.099 634.715C185.647 654.781 236.279 666.8 290.278 663.218C342.348 659.836 412.534 638.992 448.742 590.055C474.213 555.77 470.473 502.573 431.513 508.097C422.716 509.307 414.404 514.219 407.73 520.997C398.753 530.04 392.808 542.336 392.416 553.668C391.719 573.749 405.265 589.648 423.563 598.891C491.425 633.199 601.115 601.185 657.684 512.168C731.625 395.813 847.247 416.078 844.312 462.014C840.255 525.525 738.911 503.382 810.929 396.891C843.735 347.737 927.939 326.62 1033.75 331.17C1149.74 336.169 1505.31 87.6498 1395.9 -154.195M-170.335 815.58C-138.068 743.997 -67.4148 651.444 31.212 625.937C71.751 615.451 107.759 627.834 139.658 642.36C183.053 662.14 233.383 674.036 286.976 670.675C338.82 667.505 408.167 647.253 444.783 599.548C470.579 566.111 468.22 514.356 431.951 518.698C423.775 519.677 416.064 524.163 409.934 530.447C401.654 538.839 396.317 550.322 396.297 560.88C396.263 579.629 409.942 594.224 428.191 602.582C495.637 633.485 603.975 601.458 661.333 514.291C735.275 401.934 849.083 420.347 848.406 464.974C847.485 525.821 751.051 504.339 822.526 400.903C856.5 352.565 939.645 332.129 1043.96 333.342C1161.57 334.707 1508.19 86.0197 1399.08 -151.97M-170.963 810.866C-139.935 742.037 -69.3331 656.179 29.711 632.94C69.6637 623.566 105.409 635.674 137.225 650C180.47 669.499 230.487 681.272 283.688 678.12C335.319 675.161 403.822 655.496 440.844 609.023C466.958 576.441 465.997 526.049 432.408 529.293C424.849 530.023 417.745 534.09 412.159 539.88C404.568 547.626 399.852 558.295 400.202 568.064C400.827 585.475 414.632 598.771 432.842 606.244C499.85 633.744 606.824 601.732 665.016 516.385C738.902 408.028 850.927 424.526 852.541 467.898C854.698 526.024 763.226 505.265 834.154 404.88C869.301 357.363 951.487 337.476 1054.2 335.472C1173.57 333.142 1511.12 84.3488 1402.28 -149.785M-171.586 806.157C-141.799 740.082 -71.267 660.882 28.2025 639.949C67.5627 631.665 103.045 643.527 134.773 657.646C177.875 676.859 227.568 688.51 280.381 685.572C331.787 682.824 399.369 663.695 436.892 618.51C463.273 586.735 463.754 537.76 432.858 539.894C425.924 540.37 419.423 544.028 414.374 549.33C407.479 556.425 403.38 566.274 404.102 575.269C405.392 591.338 419.311 603.336 437.496 609.923C504.035 634.026 609.636 602.046 668.695 518.501C742.462 414.153 852.739 428.652 856.67 470.844C861.828 526.198 775.403 506.209 845.787 408.879C882.107 362.183 963.422 342.707 1064.44 337.625C1185.68 331.528 1514.03 82.7064 1405.49 -147.584M-172.214 801.443C-143.667 738.121 -73.2268 665.552 26.7014 646.953C65.4627 639.736 100.696 651.367 132.332 665.291C175.285 684.223 224.665 695.753 277.084 693.035C328.269 690.503 395.01 671.95 432.944 628.003C459.639 597.076 461.516 549.476 433.301 550.5C426.985 550.728 421.094 553.972 416.578 558.781C410.373 565.23 406.897 574.254 407.986 582.47C409.942 597.196 423.958 607.903 442.126 613.604C508.161 634.322 612.389 602.375 672.358 520.612C745.949 420.277 854.485 432.726 860.782 473.797C868.841 526.344 787.562 507.159 857.398 412.88C894.886 366.998 975.427 347.796 1074.66 339.779C1197.88 329.819 1516.93 81.0532 1408.69 -145.376M-172.838 796.735C-145.534 736.161 -75.2059 670.185 25.2006 653.956C63.3566 647.786 98.3347 659.208 129.892 672.936C172.695 691.588 221.762 702.995 273.789 700.486C324.749 698.165 390.642 680.194 428.999 637.484C456.015 607.399 459.28 561.18 433.758 561.095C428.06 561.074 422.768 563.905 418.801 568.225C413.296 574.027 410.432 582.227 411.893 589.67C414.516 603.041 428.627 612.468 446.78 617.282C512.274 634.63 615.122 602.721 676.043 522.722C749.385 426.409 856.197 436.746 864.919 476.738C875.756 526.457 799.745 508.096 869.039 416.873C907.7 371.812 987.533 352.735 1084.9 341.926C1210.21 328.016 1519.85 79.4049 1411.91 -143.181M-173.466 792.021C-147.402 734.201 -77.2025 674.769 23.6948 660.954C61.2438 655.813 95.9734 667.049 127.443 680.571C170.091 698.937 218.846 710.221 270.485 707.927C321.22 705.817 386.276 688.427 425.038 646.96C452.367 617.725 457.021 572.886 434.192 571.691C429.113 571.422 424.43 573.838 421.001 577.67C416.185 582.827 413.946 590.19 415.773 596.866C419.071 608.877 433.25 617.036 451.413 620.951C516.334 634.946 617.792 603.076 679.701 524.828C752.728 432.529 857.812 440.732 869.029 479.674C882.525 526.549 811.895 509.036 880.648 420.856C920.481 376.617 999.677 357.523 1095.13 344.063C1222.61 326.086 1522.75 77.7405 1415.1 -140.99M-174.089 787.312C-149.266 732.246 -79.207 679.314 22.1981 667.962C59.1337 663.83 93.628 674.894 125.014 688.216C167.519 706.295 215.954 717.463 267.206 715.383C317.727 713.484 381.931 696.67 421.109 656.446C448.763 628.059 454.78 584.613 434.661 582.285C430.199 581.768 426.127 583.77 423.23 587.108C419.11 591.614 417.486 598.141 419.687 604.06C423.651 614.7 437.901 621.607 456.073 624.624C520.387 635.296 620.443 603.438 683.389 526.927C756.031 438.629 859.37 444.693 873.161 482.609C889.181 526.648 824.074 509.968 892.284 424.844C933.29 381.426 1011.91 362.173 1105.37 346.21C1235.11 324.046 1525.67 76.092 1418.31 -138.794M-174.724 782.604C-151.141 730.291 -81.2247 683.816 20.6853 674.967C57.008 671.814 91.2596 682.741 122.562 695.862C164.917 713.661 213.039 724.706 263.893 722.84C314.188 721.153 377.556 704.921 417.149 665.939C445.124 638.394 452.505 596.342 435.103 592.892C431.253 592.132 427.786 593.715 425.445 596.558C422.015 600.418 421.007 606.098 423.582 611.26C428.203 620.519 442.526 626.192 460.715 628.304C524.376 635.683 623.021 603.825 687.056 529.043C759.241 444.745 860.82 448.666 877.28 485.557C895.68 526.799 836.24 510.912 903.906 428.844C946.081 386.241 1024.17 366.7 1115.6 348.358C1247.67 321.876 1528.58 74.4383 1421.52 -136.593M-175.348 777.896C-153.011 728.342 -83.2406 688.262 19.1886 681.975C54.9034 679.78 88.9141 690.587 120.121 703.507C162.327 721.025 210.139 731.937 260.598 730.292C310.673 728.821 373.199 713.164 413.204 675.42C441.492 648.724 450.228 608.054 435.553 603.492C432.31 602.485 429.464 603.653 427.656 606.003C424.922 609.211 424.52 614.045 427.477 618.46C432.747 626.327 447.134 630.782 465.364 631.977C528.342 636.098 625.557 604.204 690.737 531.148C762.392 450.83 862.177 452.654 881.41 488.503C902.055 526.984 848.41 511.861 915.536 432.838C958.883 391.055 1036.47 371.08 1125.84 350.511C1260.29 319.569 1531.5 72.7846 1424.73 -134.392M-175.976 773.182C-154.879 726.382 -85.2487 692.647 17.683 688.973C52.788 687.719 86.5485 698.422 117.676 711.147C159.733 728.385 207.231 739.174 257.303 737.743C307.153 736.484 368.842 721.408 409.252 684.907C437.865 659.059 447.927 619.779 435.999 614.087C433.362 612.832 431.138 613.585 429.867 615.448C427.829 618.004 428.017 621.987 431.369 625.656C437.267 632.12 451.727 635.385 470.001 635.652C532.253 636.561 628.032 604.58 694.4 533.259C765.457 456.898 863.418 456.688 885.524 491.445C908.284 527.221 860.566 512.794 927.147 436.838C971.666 395.876 1048.78 375.344 1136.07 352.664C1272.94 317.1 1534.4 71.1427 1427.92 -132.19M-176.6 768.474C-156.747 724.422 -87.24 696.981 16.1862 695.982C50.6864 695.646 84.196 706.274 115.24 718.798C157.149 735.744 204.332 746.422 254.012 745.199C303.641 744.157 364.494 729.662 405.311 694.393C434.249 669.394 445.619 631.482 436.453 624.693C434.418 623.185 432.816 623.524 432.083 624.898C430.738 626.814 431.508 629.935 435.264 632.856C441.768 637.92 456.318 639.999 474.65 639.325C536.142 637.069 630.465 604.948 698.081 535.364C768.461 462.936 864.562 460.787 889.656 494.38C914.409 527.53 872.745 513.727 938.778 440.82C984.466 400.675 1061.12 379.461 1146.3 354.801C1285.62 314.469 1537.31 69.4778 1431.13 -129.994M-177.228 763.76C-158.615 722.461 -89.2276 701.248 14.6807 702.98C48.5742 703.546 81.842 714.109 112.802 726.432C154.562 743.097 201.427 753.648 250.713 752.645C300.124 751.808 360.137 737.906 401.362 703.869C430.625 679.718 443.287 643.142 436.906 635.283C435.469 633.516 434.49 633.456 434.301 634.337C433.653 635.601 434.978 637.872 439.166 640.051C446.237 643.737 460.907 644.624 479.299 642.999C540.008 637.634 632.835 605.296 701.762 537.469C771.402 468.939 865.615 464.963 893.782 497.321C920.43 527.928 884.911 514.671 950.408 444.814C997.268 405.489 1073.47 383.484 1156.54 356.948C1298.32 311.665 1540.23 67.8293 1434.34 -127.798M-177.852 759.051C-160.478 720.506 -91.1873 705.464 13.1836 709.989C46.4867 711.434 79.4895 721.96 110.362 734.077C151.972 750.462 198.524 760.89 247.418 760.097C296.604 759.47 355.781 746.15 397.421 713.356C427.009 690.052 440.987 654.755 437.356 645.883C436.519 643.847 436.168 643.394 436.512 643.781C436.553 644.4 438.432 645.833 443.057 647.246C450.663 649.574 465.486 649.266 483.937 646.673C543.846 638.25 635.138 605.62 705.42 539.574C774.243 474.907 866.534 469.246 897.896 500.263C926.355 528.408 897.072 515.609 962.026 448.808C1010.06 410.304 1085.8 387.397 1166.76 359.096C1310.97 308.691 1543.13 66.1762 1437.53 -125.602M-178.479 754.337C-162.346 718.546 -93.1248 709.606 11.6782 716.987C44.3889 719.294 77.1307 729.79 107.917 741.718C149.384 757.816 195.617 768.127 244.123 767.548C293.088 767.138 351.428 754.399 393.475 722.837C423.388 700.382 438.741 666.305 437.813 656.478C437.597 654.155 437.849 653.321 438.741 653.22C439.478 653.187 441.888 653.81 446.971 654.44C455.086 655.449 470.074 653.918 488.599 650.335C547.69 638.915 637.401 605.897 709.115 541.667C777.059 480.816 867.415 473.625 902.042 503.186C932.244 528.973 909.265 516.53 973.671 452.779C1022.87 415.09 1098.14 391.199 1177.02 361.226C1323.63 305.511 1546.06 64.5054 1440.76 -123.418M-179.103 749.629C-164.209 716.591 -95.0319 713.686 10.1815 723.996C42.316 727.142 74.7784 737.641 105.481 749.368C146.798 765.186 192.714 775.37 240.826 775.01C289.565 774.812 347.078 762.664 389.521 732.335C419.759 710.728 436.553 677.869 438.254 667.096C438.663 664.491 439.511 663.282 440.943 662.681C442.369 662.003 445.311 661.834 450.846 661.658C459.475 661.382 474.63 658.617 493.221 654.032C551.491 639.672 639.572 606.161 712.761 543.802C779.767 486.709 868.168 478.177 906.134 506.157C938.043 529.671 921.396 517.503 985.266 456.802C1035.64 419.934 1110.39 394.966 1187.23 363.402C1336.2 302.199 1548.95 62.8805 1443.94 -121.193M-179.738 744.921C-166.084 714.636 -96.9154 717.71 8.66903 730.999C40.2368 734.968 72.4103 745.488 103.031 757.003C144.195 772.535 189.802 782.602 237.522 782.451C286.041 782.469 342.716 770.903 385.567 741.805C416.134 721.052 434.403 689.436 438.697 677.675C439.755 674.786 441.182 673.199 443.152 672.11C445.275 670.78 448.748 669.845 454.74 668.842C463.892 667.308 479.199 663.304 497.861 657.695C555.317 640.444 641.705 606.322 716.433 545.896C782.457 492.508 868.885 482.815 910.257 509.081C943.843 530.412 933.566 518.425 996.889 460.774C1048.44 424.727 1122.64 398.617 1197.45 365.528C1348.7 298.634 1551.86 61.2049 1447.13 -119.013M-180.361 740.212C-167.947 712.682 -98.7432 721.658 7.17226 738.008C38.1801 742.794 70.0649 753.334 100.595 764.654C141.609 779.905 186.91 789.843 234.236 789.913C282.536 790.137 338.377 779.168 381.63 751.297C412.516 731.398 432.283 701.068 439.156 688.286C440.852 685.132 442.865 683.142 445.376 681.57C448.188 679.595 452.209 677.9 458.644 676.053C468.333 673.277 483.788 668.029 502.519 661.38C559.184 641.28 643.805 606.43 720.123 548.011C785.107 498.259 869.575 487.603 914.391 512.033C949.654 531.253 945.748 519.374 1008.53 464.779C1061.25 429.552 1134.86 402.231 1207.7 367.686C1361.14 294.923 1554.78 59.5672 1450.36 -116.802M-180.99 735.498C-169.82 710.716 -100.536 725.55 5.66637 745.006C36.1306 750.585 67.6991 761.169 98.1501 772.294C139.021 787.258 183.998 797.075 230.936 797.359C279.016 797.799 334.025 787.417 377.685 760.778C408.9 741.732 430.132 712.719 439.613 698.881C441.952 695.466 444.55 693.074 447.594 691.009C451.107 688.387 455.686 685.932 462.546 683.247C472.807 679.228 488.384 672.748 507.167 665.053C563.066 642.149 645.855 606.434 723.793 550.116C787.714 503.929 870.228 492.504 918.517 514.974C955.467 532.166 957.913 520.318 1020.15 468.778C1074.04 434.368 1147.01 405.788 1217.93 369.84C1373.43 291.014 1557.69 57.9194 1453.56 -114.6M-181.618 730.785C-171.688 708.756 -102.28 729.372 4.1609 752.004C34.0884 758.371 65.3448 769.004 95.7007 779.928C136.422 794.613 181.086 804.307 227.626 804.805C275.48 805.457 329.661 795.667 373.717 770.261C405.261 752.068 427.945 724.399 440.036 709.477C443.011 705.807 446.194 703.014 449.782 700.455C453.984 697.187 459.145 693.97 466.415 690.444C477.262 685.185 492.963 677.489 511.782 668.729C566.952 643.051 647.824 606.327 727.44 552.223C790.271 509.525 870.846 497.518 922.616 517.911C961.271 533.141 970.058 521.252 1031.75 472.763C1086.81 439.173 1159.08 409.298 1228.14 371.977C1385.56 286.914 1560.57 56.2563 1456.74 -112.414M-182.241 726.076C-173.551 706.801 -103.974 733.141 2.66389 759.013C32.0709 766.144 62.9924 776.856 93.2646 787.579C133.836 801.983 178.188 811.555 224.34 812.267C271.969 813.13 325.315 803.938 369.781 779.752C401.647 762.419 425.773 736.095 440.501 720.083C444.113 716.158 447.884 712.952 452.016 709.898C456.914 705.979 462.656 702 470.333 697.643C481.787 691.127 497.596 682.24 516.454 672.401C570.939 643.976 649.82 606.096 731.136 554.332C792.867 515.04 871.528 502.639 926.757 520.857C967.155 534.183 982.246 522.194 1043.39 476.761C1099.63 443.986 1171.12 412.794 1238.39 374.135C1397.58 282.653 1563.5 54.6126 1459.96 -110.196M-182.869 721.362C-175.426 704.846 -105.607 736.841 1.15847 766.011C30.0562 773.906 60.6381 784.691 90.8266 795.213C131.244 809.331 175.283 818.78 221.047 819.707C268.463 820.781 320.974 812.186 365.838 789.222C398.034 772.742 423.587 747.774 440.954 730.672C445.195 726.498 449.564 722.878 454.234 719.337C459.828 714.766 466.163 710.024 474.231 704.832C486.304 697.059 502.23 686.99 521.098 676.069C574.942 644.905 651.769 605.706 734.813 556.432C795.448 520.451 872.205 507.838 930.885 523.787C973.072 535.251 994.414 523.127 1055.02 480.738C1112.43 448.779 1183.07 416.244 1248.63 376.26C1409.41 278.197 1566.42 52.9421 1463.17 -108.023M-183.493 716.654C-177.29 702.892 -107.186 740.494 -0.338471 773.02C28.0638 781.666 58.2812 792.537 88.3859 802.859C128.661 816.69 172.379 826.023 217.745 827.164C264.935 828.449 316.616 820.458 361.886 798.709C394.404 783.089 421.391 759.472 441.399 741.267C446.265 736.84 451.231 732.817 456.44 728.777C462.724 723.56 469.658 718.05 478.122 712.027C490.82 702.99 506.872 691.751 525.736 679.744C578.987 645.843 653.706 605.162 738.476 558.543C798.027 525.79 872.899 513.131 934.999 526.729C979.022 536.373 1006.57 524.061 1066.64 484.733C1125.22 453.594 1194.94 419.715 1258.86 378.414C1421.02 273.62 1569.32 51.2945 1466.37 -105.821M-184.121 711.94C-179.157 700.931 -108.706 744.088 -1.84405 780.018C26.0809 789.41 55.9201 800.378 85.9412 810.499C126.067 824.049 169.472 833.26 214.446 834.61C261.415 836.112 312.276 828.778 357.94 808.19C390.798 793.478 419.185 771.169 441.849 751.868C447.351 747.186 452.905 742.75 458.656 738.227C465.636 732.359 473.172 726.068 482.017 719.228C495.351 708.91 511.541 696.516 530.385 683.417C583.095 646.772 655.664 604.429 742.157 560.648C800.675 531.026 873.645 518.471 939.129 529.675C985.036 537.531 1018.75 525.004 1078.27 488.732C1138.02 458.414 1206.74 423.19 1269.1 380.566C1432.44 268.913 1572.25 49.6455 1469.59 -103.615M-184.752 707.237C-181.032 698.977 -110.172 747.635 -3.34764 787.032C24.1138 797.158 53.5677 808.229 83.4981 818.155C123.474 831.425 166.562 840.508 211.153 842.078C257.897 843.791 307.919 837.05 353.99 817.694C387.166 803.836 416.969 782.884 442.301 762.485C448.421 757.554 454.585 752.705 460.869 747.688C468.543 741.18 476.676 734.104 485.91 726.439C499.879 714.841 516.219 701.291 535.024 687.108C587.24 647.716 657.647 603.527 745.824 562.764C803.353 536.171 874.428 523.87 943.247 532.622C991.091 538.709 1030.91 525.954 1089.89 492.726C1150.81 463.224 1218.44 426.681 1279.33 382.714C1443.6 264.093 1575.14 47.9929 1472.78 -101.418M-185.379 702.523C-182.9 697.016 -111.571 751.134 -4.85309 794.03C22.156 804.89 51.2066 816.07 81.0558 825.784C120.882 838.774 163.657 847.734 207.856 849.512C254.38 851.442 303.565 845.282 350.043 827.158C383.544 814.149 414.782 794.591 442.745 773.064C449.499 767.889 456.257 762.621 463.078 757.116C471.448 749.956 480.19 742.095 489.804 733.623C504.414 720.739 520.913 706.043 539.671 690.765C591.442 648.602 659.696 602.378 749.496 564.858C806.106 541.208 875.254 529.277 947.364 535.553C997.195 539.889 1043.07 526.881 1101.5 496.715C1163.6 468.034 1230.04 430.188 1289.55 384.857C1454.55 259.167 1578.05 46.3338 1475.98 -99.2218M-186.003 697.815C-184.763 695.061 -112.905 754.586 -6.34997 801.039C20.225 812.625 48.8566 823.91 78.6196 833.435C118.298 846.132 160.765 854.976 204.559 856.975C250.864 859.11 299.203 853.548 346.095 836.651C379.914 824.495 412.555 806.279 443.199 783.67C450.573 778.236 457.928 772.565 465.3 766.56C474.36 758.754 483.711 750.108 493.706 740.817C508.958 726.647 525.637 710.789 544.32 694.439C595.695 649.479 661.817 601.032 753.177 566.963C808.955 546.161 876.144 534.721 951.497 538.488C1003.37 541.083 1055.25 527.813 1113.13 500.697C1176.4 472.837 1241.58 433.727 1299.79 386.993C1465.26 254.17 1580.96 44.6747 1479.18 -97.037M-186.631 693.101C-186.631 693.101 174.453 1016.56 467.516 776.01C557.492 698.009 664.817 536.811 955.62 541.44C1246.43 546.075 1649.88 132.67 1482.4 -94.825" stroke="url(#paint0_linear_8_759)" stroke-width="0.5658" stroke-miterlimit="10"/>
<defs>
<linearGradient id="paint0_linear_8_759" x1="1487.43" y1="-106.15" x2="-83.2867" y2="983.191" gradientUnits="userSpaceOnUse">
<stop stop-color="#FFBCBC"/>
<stop offset="1" stop-color="#FF9999"/>
</linearGradient>
</defs>
</svg>
